<svg xmlns="http://www.w3.org/2000/svg" xmlns:xlink="http://www.w3.org/1999/xlink" version="1.1" id="Ebene_1" x="0" y="0" width="46" height="40" viewBox="16.46 10 46 40" enable-background="new 16.458 10 46 40" xml:space="preserve">
  <path fill="#E1E1E1" d="M52.99 28.17c0 1.33-1.08 2.41-2.4 2.41H28.33c-1.33 0-2.41-1.08-2.41-2.41V13.74c0-1.33 1.08-2.41 2.41-2.41h22.26c1.33 0 2.4 1.08 2.4 2.41V28.17z"/>
  <path fill="#F0F0F0" d="M56.73 36.55c0 1.7-1.37 3.07-3.07 3.07H25.26c-1.69 0-3.07-1.37-3.07-3.07V18.14c0-1.69 1.38-3.07 3.07-3.07h28.4c1.7 0 3.07 1.38 3.07 3.07V36.55z"/>
  <path fill="#FFFFFF" d="M60.46 44.93c0 2.06-1.67 3.73-3.73 3.73H22.19c-2.06 0-3.73-1.67-3.73-3.73v-22.4c0-2.06 1.67-3.73 3.73-3.73h34.53c2.06 0 3.73 1.67 3.73 3.73V44.93z"/>
</svg>
